<svg xmlns="http://www.w3.org/2000/svg" viewBox="0 0 512 512" role="img" aria-labelledby="title">
  <title id="title">Dokyr</title>
  <rect width="512" height="512" rx="112" fill="#0b0e14"/>
  <path fill="#f5f7fb" fill-rule="evenodd" d="M32 39h272l27 5 26 9 30 16 19 14 25 25 23 34 17 41 8 41v45l-8 40-14 35-11 19-15 20-24 24-30 21-28 13-33 9-16 2H35l168-88 7-7 2-10h87l16-6 86-76 6-10 1-14-5-11-26-25-1 1-9-9-1 1-46-42-17-9H92l7 7 50 37 3 6v38l-3-1-22-18-5-2-30-24-5-2-52-39-3-8V39Z"/>
  <path fill="#0d63e5" d="M209 260h3v91l-3 8-5 5-12 5-1 2-159 82v-95l2-5 19-12 28-13 1-2 47-23 1-2 24-11 1-2 54-28Z"/>
</svg>
